# xmcd CD database file
#
# Track frame offsets:
#	150
#	11215
#	25647
#	40015
#	55583
#	68783
#	82286
#	96061
#	110927
#	125057
#	137321
#	151015
#	168642
#	179968
#	195040
#	208605
#
# Disc length: 2989 seconds
#
# Revision: 2
# Processed by: cddbd v1.5.2PL0 Copyright (c) Steve Scherf et al.
# Submitted via: CDex 1.79
#
DISCID=d80bab10
DTITLE=Fats Waller - Sixteen Great Piano Solos
DYEAR=1997
DGENRE=Jazz
TTITLE0=Russian Fantasy
TTITLE1=Keeping Out of Mischief Now
TTITLE2=Viper Drag
TTITLE3=Smashing Thirds
TTITLE4=Honeysuckle Rose
TTITLE5=Ain't Misbehavin'
TTITLE6=Gladyse
TTITLE7=African Ripples
TTITLE8=Numb Fumblin'
TTITLE9=Alligator Crawl
TTITLE10=I've Got a Feelin' I'm Fallin'
TTITLE11=Valentine Stomp
TTITLE12=E-Flat Blues
TTITLE13=Sweet Savannah Sue
TTITLE14=Clothesline Ballet
TTITLE15=Handful of Keys
EXTD=YEAR: 1997
EXTT0=
EXTT1=
EXTT2=
EXTT3=
EXTT4=
EXTT5=
EXTT6=
EXTT7=
EXTT8=
EXTT9=
EXTT10=
EXTT11=
EXTT12=
EXTT13=
EXTT14=
EXTT15=
PLAYORDER=
